<?xml version="1.0" encoding="UTF-8" standalone="no"?>
<svg xmlns:rdf="http://www.w3.org/1999/02/22-rdf-syntax-ns#" xmlns="http://www.w3.org/2000/svg" height="646pt" width="579pt" version="1.1" xmlns:cc="http://creativecommons.org/ns#" xmlns:dc="http://purl.org/dc/elements/1.1/" viewBox="0 0 579 646">
<g>
<path d="m255.29 5.7438c-7.1378-0.070469-14.419 1.21-21.534 0.51562-18.32 1.13-35.01 9.7806-52.33 15.141-14.37 7.35-30.829 9.18-44.909 17.2-9.11 2.18-18.15 6.7503-22.05 15.87-19.85 22.63-49.451 35.55-67.341 59.68-4.2 1.13-6.0397 5.33-8.4797 8.5-3.98 5.68-10.029 10.131-11.809 17.141-2.209 11.63-9.99 20.99-16.54 30.51-4.92 7.14-7.09 17.06-2.75 24.97 1.77 2.66 6.3706 1.5403 7.4906 4.5203-2.09 2.79-5.4006 5.4-5.0406 9.25 2.1 14.64 8.0803 28.359 12.57 42.369 3.26 6.78 3.9 15.861 11.8 19.181 9.44 6.35 21.43 2.35 31.15-1.15 9.05-1.82 16.85-7.0403 25.83-9.1203 5.3-1.89 11.53-2.2909 15.77-6.3109-1.7-2.38-3.69-4.5694-5.05-7.1594 4.22 1.77 8.1703 4.2903 12.62 5.5203 5.43 1.47 12.249-3.9709 16.559 1.2391 5.19 4.88 11.491 9.2112 13.991 16.181 2.43 7.78 9.0797 13.13 12.68 20.3 4.53 8.82 11.06 16.349 16.05 24.909 5.12 9.59 16.36 12.87 23.38 20.68 2.6 3.26 6.3006 5.2506 10.391 5.9906-3.57 5.27-8.0206 11.16-7.4406 17.93 10.39 4.46 20.881-0.25938 30.741-3.4594-3.78 8.16-7.07 16.559-11.6 24.359-1.58 2.77 2.2387 4.0606 4.2187 4.8406 7.35-0.17 16.96-5.0906 23.47 0.70938-2.56 5.97-6.809 12.26-4.289 19.05 2.66 6.42-3.8703 11.269-5.5203 17.109 2.94-0.69 5.6597-2.0397 8.5797-2.8297 6.37 3.23 11.16 8.9303 17.25 12.67 6.18 1.57 0.54968 5.6094-2.1203 6.4094-6.26-2.27-12.73 2.3112-19.3 1.7312-1.9085-4.2044-3.573-12.116-8.8938-11.897-0.1716 0.007-0.34712 0.0225-0.52656 0.0469-0.92 9.41-5.95 18.02-5.4 27.63 0.36 13.12-4.2494 25.649-4.6094 38.659 1.91 3.83 6.3606 5.8009 8.5906 9.5609-1.14 17.64 9.33 32.99 10.7 50.18 13.11 1.47 27.169 1.2003 40.369-1.4297 37.04-7.93 70.09-27.51 102.45-46.35 2.06-0.75 4.4213 0.42969 6.3313 1.4297-1.98 5.39 0.43968 12.17-4.1703 16.5-4.34 5.11-7.6706 15.74 0.85936 18.5 6.85-1.31 13.82-1.9403 20.8-1.7703 2.19 0.79 3.6203 3.1197 3.4203 5.4297-0.24 7-0.31936 13.991-0.40936 20.991 5.13 1.39 8.8094-4.2697 13.959-2.9797 8.41 4.28 7.6303-11.451 14.57-6.1812 0.54 10.28-0.98968 20.701-5.1797 30.161-0.67 2.83-3.1003 6.8597-0.47032 9.2297 8.53 4.18 18-0.76969 26.62 3.3203 1.21 2.73 1.3294 5.7691 2.2094 8.6391 3.91 3.38 10.231 3.3006 12.741 8.4906 5.63 9.19 13.749 17.15 24.239 20.37 11.34-7.82 24.02-13.5 35.18-21.63 11.91-7.9 25.95-11.911 37.77-19.991-1.94-3.59-3.92-7.4103-2.35-11.67 1.43-13.34-0.40032-27.029-5.5703-39.409-4.93-15.43-15.479-30.221-31.269-35.761-3.08-0.52-3.2303-3.9091-3.5203-6.4891-1.92-6.14 5.409-8.65 5.889-14.05-0.09-5.74 3.2006-10.431 5.0406-15.591-4.74-4.98-12.86-0.75938-18.8-2.0594 0.59-9.27 2.3697-18.511 2.9797-27.811-7.55 2.32-15.69 0.78032-23.38 2.4203-4.55 1.06-6.5406-4.1491-8.2406-7.3391-2.23-4.73 6.25-4.5709 6.35-8.8109-0.43-5.35 1.4906-11.65-1.1594-16.53-6.21-0.06-11.98 3.3997-18.27 2.6797-1.59-3.81-5.0903-8.8594-1.3203-12.409 7.47-8.14 5.221-19.73 8.511-29.52 6.14-27.73 10.269-56.59 7.6594-84.73-15.08-11.54-29.609-23.86-45.039-34.95-10.66-0.76-19.201 6.3591-29.381 7.9391-11.74 3.03-23.07 7.6103-33.83 13.12-3.82 2.69-1.5897 8.3303-4.8797 11.27-2.9 3.08-5.5306 7.9797-10.691 6.7797 0.17-5.46 3.0903-10.18 4.3203-15.35 2.22-4.53-2.2397-5.4097-5.0797-5.6297-4.85-0.8-9.7803-0.63031-14.62-1.4703-3.44-2.49 0.82-7.8494 0.25-11.159 2.41-7.38-8.3597-6.9609-10.38-12.861-5.62-1.68-13.711 1.2803-17.941-3.9297 0.69-4.1 1.45-8.5297-0.3-12.48-2.11-0.2-6.8487 1.4906-6.5187-2.0094 0.55-6.76-8.4213-7.2906-13.081-9.4906 0.78-5.8 7.0103-9.3706 8.6203-14.991 0.69-3.05-3.4903-5.7294-6.0703-3.9594-8.55 2.32-15.51 7.9806-23.63 11.091-5.31-6.23-9.25-13.491-13.95-20.181-5.2-9.78-10.33-22.18-22.58-24.08-0.08-0.35-0.22936-1.0594-0.30936-1.4094l3.56-0.33c3.8-16.16 10.85-31.701 11.9-48.411 4.85-9.77 12.18-18.17 16.53-28.22 3.02-7.95 6.0597-15.909 8.9797-23.909 1.71-4.59 4.82-8.9697 3.7-14.18-0.06-10.88-8.7197-18.541-14.43-26.841-1.28-3.92-5.7303-3.3003-8.2703-5.6203-3.38-3.29-4.45-8.1888-7.4-11.769-3.1563-0.90312-6.3712-1.2148-9.6156-1.2469zm190.44 251.64c0.0344-0.002 0.0688 0.002 0.10312 0-0.12832 0.006-0.25624 0.0178-0.3844 0.0266 0.0938-0.006 0.18736-0.0217 0.28128-0.0266z" fill="#bdbfe1"/>
<path d="m255.29 5.7438c-7.1378-0.070469-14.419 1.21-21.534 0.51562-18.32 1.13-35.01 9.7806-52.33 15.141-14.37 7.35-30.829 9.18-44.909 17.2-9.11 2.18-18.15 6.7503-22.05 15.87-19.85 22.63-49.451 35.55-67.341 59.68-4.2 1.13-6.0397 5.33-8.4797 8.5-3.98 5.68-10.029 10.131-11.809 17.141-2.209 11.63-9.99 20.99-16.54 30.51-4.92 7.14-7.09 17.06-2.75 24.97 1.77 2.66 6.3706 1.5403 7.4906 4.5203-2.09 2.79-5.4006 5.4-5.0406 9.25 2.1 14.64 8.0803 28.359 12.57 42.369 3.26 6.78 3.9 15.861 11.8 19.181 9.44 6.35 21.43 2.35 31.15-1.15 9.05-1.82 16.85-7.0403 25.83-9.1203 5.3-1.89 11.53-2.2909 15.77-6.3109-1.7-2.38-3.69-4.5694-5.05-7.1594 4.22 1.77 8.1703 4.2903 12.62 5.5203 5.43 1.47 12.249-3.9709 16.559 1.2391 5.19 4.88 11.491 9.2112 13.991 16.181 2.43 7.78 9.0797 13.13 12.68 20.3 4.53 8.82 11.06 16.349 16.05 24.909 5.12 9.59 16.36 12.87 23.38 20.68 2.6 3.26 6.3006 5.2506 10.391 5.9906-3.57 5.27-8.0206 11.16-7.4406 17.93 10.39 4.46 20.881-0.25938 30.741-3.4594-3.78 8.16-7.07 16.559-11.6 24.359-1.58 2.77 2.2388 4.0606 4.2188 4.8406 7.35-0.17 16.96-5.0906 23.47 0.70938-2.56 5.97-6.8091 12.26-4.2891 19.05 2.66 6.42-3.8703 11.269-5.5203 17.109 2.94-0.69 5.6597-2.0397 8.5797-2.8297 6.37 3.23 11.16 8.9303 17.25 12.67 6.18 1.57 0.5497 5.6094-2.1203 6.4094-6.26-2.27-12.73 2.3112-19.3 1.7312 1.55 3.93 3.04 7.8891 4.1 11.989 2.49 5.46 4.88 11.04 8.65 15.78 5.47 1.25 4.0303-6.8697 8.0703-8.5297 12.75-5.45 25.57-11.029 37.17-18.659 8.23-7.55 20.049-11.101 26.159-20.891 16.7-20.65 34.751-40.37 49.111-62.88 6.73-8.06 12.37-16.92 18.93-25.1 9.91-13.91 16.779-29.851 27.909-42.891 2.01-1.67 0.3109-3.7494-1.2891-4.9594-9.83 0.73-19.771 1.6097-29.591 0.32969-2.28-0.22-4.2994-1.4594-5.4094-3.4594 11.9-10.65 28.6-13.131 43.38-17.891 7.08-2.64 14.86-7.7394 22.63-4.7594 10.24 7.77 20.47 15.6 30.25 23.95 4.49 3.8 11.67 5.9994 13.1 12.259 2.49 32.09-7.6 63.09-11.85 94.58-0.46 3.91-0.74 8.2809-3.65 11.311-16.88 20.69-36.809 38.66-53.509 59.52-9.94 13.58-22.51 24.84-34.95 36.03-13.13 14.59-31.37 22.89-48.77 31.22-15.92 9.83-33.71 16.199-51.58 21.489-12.31 2.57-25.081 6.5309-37.631 3.3609-0.13-3.28 2.38-5.87 2.85-9-1.68-3.98-3.9988-7.6612-6.8688-10.881-3.43-2.56-5.58-6.3188-6.65-10.419-2.33-6.67-7.11-12.03-11.4-17.5-1.14 17.64 9.33 32.99 10.7 50.18 13.11 1.47 27.169 1.2003 40.369-1.4297 37.04-7.93 70.09-27.51 102.45-46.35 2.06-0.75 4.4212 0.42969 6.3312 1.4297-1.98 5.39 0.4397 12.17-4.1703 16.5-4.34 5.11-7.6706 15.74 0.8594 18.5 6.85-1.31 13.82-1.9403 20.8-1.7703 2.19 0.79 3.6203 3.1197 3.4203 5.4297-0.24 7-0.3194 13.991-0.4094 20.991 5.13 1.39 8.8094-4.2697 13.959-2.9797 8.41 4.28 7.6303-11.451 14.57-6.1812 0.54 10.28-0.9897 20.701-5.1797 30.161-0.67 2.83-3.1003 6.8597-0.4703 9.2297 8.53 4.18 18-0.76969 26.62 3.3203 1.21 2.73 1.3294 5.7691 2.2094 8.6391 3.91 3.38 10.231 3.3006 12.741 8.4906 5.63 9.19 13.749 17.15 24.239 20.37 11.34-7.82 24.02-13.5 35.18-21.63 11.91-7.9 25.95-11.911 37.77-19.991-1.94-3.59-3.92-7.4103-2.35-11.67 1.43-13.34-0.4003-27.029-5.5703-39.409-4.93-15.43-15.479-30.221-31.269-35.761-3.08-0.52-3.2303-3.9091-3.5203-6.4891-1.92-6.14 5.4091-8.65 5.8891-14.05-0.09-5.74 3.2006-10.431 5.0406-15.591-4.74-4.98-12.86-0.75938-18.8-2.0594 0.59-9.27 2.3697-18.511 2.9797-27.811-7.55 2.32-15.69 0.78031-23.38 2.4203-4.55 1.06-6.5406-4.1491-8.2406-7.3391-2.23-4.73 6.25-4.5709 6.35-8.8109-0.43-5.35 1.4906-11.65-1.1594-16.53-6.21-0.06-11.98 3.3997-18.27 2.6797-1.59-3.81-5.0903-8.8594-1.3203-12.409 7.47-8.14 5.2209-19.73 8.5109-29.52 6.14-27.73 10.269-56.59 7.6594-84.73-15.08-11.54-29.609-23.86-45.039-34.95-10.66-0.76-19.201 6.3591-29.381 7.9391-11.74 3.03-23.07 7.6103-33.83 13.12-3.82 2.69-1.5897 8.3303-4.8797 11.27-2.9 3.08-5.5306 7.9797-10.691 6.7797 0.17-5.46 3.0903-10.18 4.3203-15.35 2.22-4.53-2.2397-5.4097-5.0797-5.6297-4.85-0.8-9.7803-0.63031-14.62-1.4703-3.44-2.49 0.82-7.8494 0.25-11.159 2.41-7.38-8.3597-6.9609-10.38-12.861-5.62-1.68-13.711 1.2803-17.941-3.9297 0.69-4.1 1.45-8.5297-0.3-12.48-2.11-0.2-6.8488 1.4906-6.5188-2.0094 0.55-6.76-8.4212-7.2906-13.081-9.4906 0.78-5.8 7.0103-9.3706 8.6203-14.991 0.69-3.05-3.4903-5.7294-6.0703-3.9594-8.55 2.32-15.51 7.9806-23.63 11.091-5.31-6.23-9.25-13.491-13.95-20.181-5.2-9.78-10.33-22.18-22.58-24.08-0.08-0.35-0.2294-1.0594-0.3094-1.4094l3.5594-0.32969c3.8-16.16 10.85-31.701 11.9-48.411 4.85-9.77 12.18-18.17 16.53-28.22 3.02-7.95 6.0597-15.909 8.9797-23.909 1.71-4.59 4.82-8.9697 3.7-14.18-0.06-10.88-8.7197-18.541-14.43-26.841-1.28-3.92-5.7303-3.3003-8.2703-5.6203-3.38-3.29-4.45-8.1888-7.4-11.769-3.16-0.9025-6.37-1.2142-9.62-1.2462zm-9.1188 2.0578c5.4475-0.04125 10.901 0.11406 16.316 0.33906 6.14 11.27 16.589 18.969 25.209 28.139 3.7 6.26 7.0203 14.101 4.2203 21.361-6.23 16.59-11.16 33.999-21.78 48.489-6.51 11.83-18.7 18.161-29 26.041 6.51 14.7-7.6009 26.089-14.811 37.139-21.57 18.25-39.059 41.34-63.009 57-6.94 7.41-16.83 10.39-24.33 16.8-6.9 1.94-12.551 7.5803-20.181 6.8703-11.67 1.26-18.789-10.429-26.619-17.139-4.31-3-4.8303-8.9903-9.4703-11.62-2.84-1.16-2.24-6.1709-5.7-5.7609-3.81-8.08-7.6303-16.599-5.9703-25.809 3.23-2.37 7.56-2.9006 11.45-2.4906 2.1 3.63 5.3897 6.2206 8.2297 9.1906 6.85 15.03 21.14 24.59 30.12 38 12.93 0.2 22.62-11.03 33.3-17.18 23.33-20.53 47.28-41.16 65.12-66.97 2.11-4.11 8.6891-2.0706 10.489-6.6906 2.09-6.26 2.8803-13.38 0.7703-19.7-7.77-7.01-15.18-14.729-20.2-24.009-3.62-5.98-11.65-6.2094-17.82-5.7594-21.05 18.37-46.52 31.919-65.8 52.659-7.42 5.49-10.009 15.16-17.809 20.2-7.19 4.54-11.83 13.721-21.38 13.641-1.43-2.57-2.5703-5.3006-4.1203-7.7906-1.62-2.55-5.22-0.26-7.2-2.25-0.9-3.07 1.9697-5.51 3.7297-7.5 25.86-25.19 57.221-43.88 83.511-68.55 14.12-13.47 30.159-25.22 42.509-40.5 8.85-7.46 19.339-17.34 18.609-29.63-6.16-1.71-11.55 2.22-17.5 2.7-16.72 5.58-33.079 12.209-49.569 18.439-6.73 3.24-12.061 8.6309-17.941 13.111-21.34 13.55-37.479 33.35-56.959 49-4.07 4.45-9.0109 8.0597-14.561 10.43-15.75 15.14-32.99 32.17-33.6 55.42 0.16 3.66 8.5603 9.13-1.3297 7.85-2.51 1.56-11.481-2.2497-10.041 3.3703 6.2 2.8 12.431 6.1188 19.391 6.2688 2.51 3.96 10.44 0.59 12.62 6.05-10.4 5.73-22.611 7.8512-33.591 12.531 1.49 13.35 10.481 24.609 13.211 37.759 1.06 7.2 9.5088 11.419 16.069 8.6094 9.79-3.84 19.691-7.71 28.431-13.65 4.51-2.74 10.299-5.16 15.469-3.3 3.68 4.65 6.5706 9.8612 9.3406 15.081-15.67 5.17-31.1 11.449-47.1 15.889-8.4 3.52-19.191 2.4906-25.741-4.1594-7.98-14.64-12.359-30.941-17.019-46.861-1.56-4.95-4.0203-11.14 0.08-15.48 5.71 2.44 11.399-9.4403 5.1094-11.22-2.51 2.73-8.6194 5.26-10.309 0.85-6.14-10.8 3.42-21.34 8.95-30.05 8.24-13.81 17.339-27.079 27.289-39.709 12.83-21.44 33.421-36.329 53.181-50.809 7.15-7.46 16.489-13.071 21.559-22.361 2.99-7.16 11.451-6.7197 17.491-9.5297 14.06-7.85 30.42-10.099 44.78-17.309 15.66-5.54 31.36-11.16 47.62-14.6 5.395-0.56 10.837-0.79781 16.284-0.83906zm7.9281 13.175c-0.5501-0.02359-1.1053 0.06344-1.6328 0.27344-2.87 2.36-2.9697 6.85-6.1797 9.1-6.01 4.78-8.0209 14.95-16.361 16.57-5.71-0.69-7.1694 5.1394-10.459 8.2594-3.64 19.9 6.0803 39.081 17.97 54.241 2.92 3.37 6.57 7.5694 11.7 5.2594 2.34-8.36 8.9391-14.48 12.089-22.47 4.36-9.95 11.691-18.739 13.711-29.609 5.32 0.5 3.5888-8.5806 3.9188-11.741-5.48-10.04-13.069-18.73-20.909-26.98-0.6-1.7625-2.1964-2.8323-3.8469-2.9031zm-3.9859 148.78c7.741-0.0417 13.227 8.1922 16.753 14.405 5.22 10.41 11.67 20.181 18.52 29.591 1.02 1.68 3.1694 1.38 4.5094 0.3 7.34-5.15 15.49-9.3597 24.12-11.78-0.11 7.26-6.38 12.089-10.15 17.639-5.77 8.3-10.741 17.141-16.741 25.281-6.07 17.06-20.18 29.28-29.32 44.58-7.53 6.95-9.8097 17.66-17.43 24.62-9.83 9.46-20.91 17.859-33.23 23.809-3.98 2.16-6.62-3.0594-9.45-4.9094-6.05-6.47-14.45-10.141-20.37-16.661-9.26-14.69-18.989-29.07-28.309-43.73-1.39-2.18-2.29-4.7797-1.85-7.4297 3.09-2.39 7.0597-3.2803 10.73-4.3703 4.82 2.49 10.36 4.9703 12.97 10.07 4.91 9.04 12.089 16.52 17.909 24.95 6.16 8.14 16.981 13.639 27.191 10.109 10.56-4.06 13.2-16.03 18.4-24.83 9.88-15.31 21.39-29.47 31.63-44.53 4.3-6.23 3.4997-14.65 0.3797-21.2-5.7-12.42-12.09-24.521-18.62-36.511-1.37-2.63-2.61-6.05-1.1-8.85 1.1987-0.37376 2.3519-0.54873 3.4578-0.55469zm75.108 63.173c2.3706 0.11333 4.28 3.0528 2.525 5.7016-2.82 11.98-10.289 21.95-14.709 33.3-6.11 10.91-16.751 20.801-21.641 33.311-6.8 6.48-9.9403 15.88-17.42 21.73-5.29 4.28-5.4091 12.199-11.189 15.939-2.5 2.09-1.8709 6.23-4.6609 8.2-3.51 2.64-2.9303 7.9212-6.8703 10.181-8.05 8.38-14.539 22.529-28.239 21.759-3.88 0.45 0.1-4.5397 0.8-6.3297 8.32-21.75 22.57-40.411 35.03-59.861 14.73-21.52 29.629-42.91 45.159-63.85 6.31-6.68 11.421-15.029 19.541-19.669 0.5569-0.31312 1.1279-0.43865 1.675-0.41249zm25.08 21.958c2.3079 0.0898 4.6297 0.83593 4.4859 3.2734 0.49 10.85-6.49 19.581-10.65 28.991-9.85 17.23-22.651 32.511-35.041 47.941-3.36 6.11-8.4506 10.84-13.391 15.63-5.48 7.77-12.82 13.92-18.13 21.85-7.61 6.35-9.2794 16.96-17.009 23.22-2.88 2.16 0.7791 11.35-3.6609 7.5797 1.03 7.39-8.83 4.21-12.35 1.65-2.26-8.26 4.0606-15.87 7.4906-22.97 13.25-19.48 29.3-36.991 42.72-56.341 2.78-5.05 6.6191-8.2991 6.0391-14.939 3.37-0.01 2.0903-4.7906 5.7203-5.1906 16.94-13.57 24.13-35.84 40.17-50.37 0.84-0.195 2.2199-0.37735 3.6047-0.32344zm22.345 41.255c1.33 0.08 3.9794 0.24907 5.3094 0.33907-0.48 5.22 2.3712 14.35-4.2688 16.92-2.5 5.17-8.0003 7.55-10.67 12.55-3.79 7.01-11.261 10.799-16.011 17.059-8.07 8.5-13.819 18.79-21.609 27.52-2.19 6.02-7.7597 9.9697-9.3797 16.38-2.25 1.83-5.2209 2.7506-7.0109 5.1406-6.77 8.6-15.46 15.75-19.95 25.98-5.35 5.39-12.79 10.741-20.85 9.4609-1.56-8.64 4.3203-16.151 9.6703-21.881 3.26-7.49 8.5197-13.85 13.28-20.4 7.71-4.8 10.051-14.68 18.091-18.98 1.34-2.91 3.6603-4.9794 6.2203-6.8094 2.78-3.4 3.0691-8.4503 6.5891-11.37 5.67-5.06 10.741-10.83 14.961-17.05 16.22-6.71 20.02-27.239 35.63-34.859zm124.47 119.08c1.7906 0.10941 2.1622 1.7747 1.1141 4.9922-1.22 3.87 2.2709 10.231-2.1891 12.591-11.42 7.18-18.26 19.271-27.45 28.791-12.29 14.1-25.91 27.129-36.55 42.419-5.84 4.52-10.39 10.44-14.87 16.17-9.96 5.88-16.38 16.631-27.43 20.761-5.75 0.81-5.5403-7.2412-4.1703-11.081 5.47-6.61 10.45-13.679 16.83-19.459 5.24-4.28 5.9497-11.66 10.78-16.2 13.31-9.66 21.21-24.9 34.42-34.6 10.39-14.26 25.75-24.44 34.22-40.17 4.61-1.31 9.9497-1.0091 13.83-4.0391 0.5644-0.14062 1.0524-0.19868 1.4656-0.17344zm15.298 32.805c2.516-0.0849 5.0375 0.40626 7.1062 1.8688 0.24 2.44 2.7003 10.49-1.7297 6.25-0.39 4.06-2.58 7.57-6.3 9.35-5.06 2.26-5.0012 8.3094-7.2812 12.659-1.36 3.18-5.7691 2.6997-7.6391 5.4297-5.41 7.5-13.61 12.541-18.3 20.661-3.64 6.41-11.41 8.5397-15.35 14.68-2.18 3.45-5.1006 6.26-8.3406 8.7-6.23 10.68-16.789 18.549-21.659 30.209-1.38 6.72-10.33 4.8009-15.3 3.5109 0.59-2.46-2.8597-11.41 2.2703-10.95 2.42-9.26 9.0591-16.441 14.439-24.091 3.4-6.95 10.441-11.031 14.261-17.691 11.29-9.47 18.77-22.54 28.95-33.08 8.53-6.71 14.389-16.66 23.739-22.18 3.56-0.29 2.9009-4.9206 6.7109-4.6406 1.4063-0.37876 2.9139-0.63659 4.4235-0.68751zm15.276 28.302c5.7686-0.0219 7.3532 8.7781 7.2594 13.297-4.06 7.93-12.291 12.689-17.491 19.839-5.19 5.9-8.7188 13.13-14.469 18.55-19.65 19.88-36.47 42.221-54.15 63.791-1.36 1.86-2.1009 4.07-3.1609 6.1-3.14-0.14-7.5991 0.43938-9.5391-2.4906-1.68-6.58 3.1597-11.89 4.3297-18 1.05-2.76 0.7497-6.5797 3.4797-8.4797 12.8-10.04 20.26-24.979 32.03-35.989 8.56-12.27 19.421-22.741 27.811-35.141 6.91-7.74 12.959-16.83 22.689-21.35 0.4225-0.0838 0.8264-0.1251 1.2109-0.12656zm4.55 35.877c17.17 4.87 27.74 22.54 32.35 39.2 3.5 11.49 5.9588 23.6 3.8188 35.62-1.46 3.63-5.7388 4.7194-8.6688 6.8594-10.93 5.72-19.891 14.81-31.431 19.35-4.65 1.27-4.2894 7.9703-9.3094 8.8203-9.72 2.74-14.4 16.051-26 12.791-7.69-4.98-12.06-13.151-17.78-20.011-2.98-3.52-7.8309-4.41-11.111-7.5-0.21-5.73 0.3812-11.47 0.9812-17.15 7.86 0.64 15.719 0.28 23.589 0.5 13.71-18.92 21.23-43.549 41.12-57.059 2.8-6.66-1.1094-15.56 2.4406-21.42zm6.2375 36.191c-0.994 0.0278-2.1337 0.34688-3.4781 1.0594-2.6 5.67-6.2294 10.1-8.5594 15.78-1.85 2.88-4.8003 5.7203-3.0203 9.6203 8.28 2.51 13.94-3.4306 19.62-7.9906 2.89 1.44 4.45 6.7212 7.9 5.6812 0.46-3.79 0.2988-7.6512 0.3688-11.431-2.9-0.11-2.8694-2.67-3.2594-5.05-3.6888-2.4456-5.2646-7.7891-9.5719-7.6688z" fill="#dddfee"/>
<path d="m307.72 9.752c-6.81 0.0515-13.61 0.349-20.36 1.049-20.32 4.3-39.95 11.325-59.52 18.25-17.95 9.012-38.4 11.824-55.98 21.637-7.55 3.512-18.12 2.962-21.86 11.912-6.34 11.612-18.01 18.626-26.95 27.951-24.699 18.099-50.438 36.709-66.476 63.509-12.437 15.79-23.811 32.38-34.111 49.64-6.913 10.89-18.863 24.06-11.188 37.56 2.113 5.51 9.75 2.35 12.887-1.06 7.863 2.22 0.751 17.07-6.387 14.02-5.125 5.43-2.049 13.17-0.099 19.35 5.825 19.9 11.298 40.28 21.273 58.58 8.188 8.31 21.676 9.6 32.176 5.2 20-5.55 39.285-13.4 58.875-19.86-3.46-6.53-7.08-13.04-11.68-18.85-6.46-2.33-13.69 0.7-19.332 4.12-10.925 7.43-23.301 12.26-35.539 17.06-8.2 3.52-18.761-1.76-20.086-10.76-3.412-16.44-14.651-30.51-16.513-47.2 13.725-5.85 28.988-8.5 41.988-15.66-2.725-6.83-12.638-2.61-15.776-7.56-8.7-0.19-16.488-4.34-24.238-7.84-1.8-7.02 9.414-2.26 12.551-4.21 12.363 1.6 1.862-5.24 1.662-9.81 0.763-29.07 22.313-50.36 42-69.28 6.938-2.96 13.114-7.47 18.203-13.04 24.35-19.56 44.52-44.31 71.2-61.247 7.35-5.6 14.01-12.339 22.42-16.389 20.62-7.787 41.06-16.074 61.96-23.049 7.44-0.6 14.18-5.512 21.88-3.375 0.91 15.363-12.2 27.712-23.26 37.038-15.44 19.1-35.49 33.782-53.14 50.622-32.86 30.84-72.06 54.2-104.39 85.69-2.198 2.49-5.785 5.54-4.66 9.37 2.475 2.49 6.97-0.37 9 2.82 1.94 3.11 3.36 6.52 5.15 9.74 11.94 0.1 17.74-11.38 26.72-17.06 9.76-6.3 12.99-18.38 22.27-25.24 24.1-25.93 55.93-42.87 82.25-65.83 7.71-0.56 17.75-0.27 22.27 7.2 6.28 11.6 15.54 21.25 25.25 30.01 2.64 7.9 1.65 16.8-0.96 24.63-2.25 5.77-10.47 3.22-13.11 8.36-22.3 32.26-52.24 58.05-81.4 83.71-13.35 7.69-25.47 21.73-41.63 21.48-11.22-16.76-29.09-28.72-37.65-47.5-3.55-3.72-7.66-6.95-10.29-11.49-4.858-0.51-10.27 0.15-14.308 3.11-2.074 11.52 2.701 22.16 7.463 32.26 4.325-0.51 3.575 5.76 7.125 7.21 5.8 3.28 6.45 10.77 11.84 14.52 9.79 8.39 18.68 23 33.27 21.42 9.54 0.89 16.6-6.16 25.23-8.58 9.37-8.02 21.74-11.74 30.41-21 29.94-19.58 51.8-48.44 78.76-71.25 9.01-13.82 26.65-28.05 18.52-46.43 12.87-9.85 28.11-17.76 36.25-32.55 13.27-18.11 19.43-39.872 27.22-60.609 3.5-9.075-0.65-18.876-5.28-26.701-10.77-11.463-23.83-21.087-31.51-35.174-6.77-0.2815-13.58-0.4756-20.39-0.424zm9.91 16.469c2.06 0.088 4.06 1.425 4.81 3.629 9.8 10.312 19.28 21.174 26.13 33.724-0.41 3.95 1.76 15.301-4.89 14.676-2.53 13.588-11.69 24.57-17.14 37.01-3.94 9.99-12.19 17.64-15.11 28.09-6.42 2.89-10.98-2.36-14.63-6.57-14.86-18.95-27.01-42.93-22.46-67.805 4.11-3.9 5.93-11.187 13.07-10.325 10.43-2.025 12.94-14.738 20.45-20.712 4.02-2.813 4.14-8.426 7.73-11.376 0.66-0.262 1.35-0.371 2.04-0.341zm-4.98 185.97c-1.39 0.01-2.83 0.23-4.33 0.7-1.88 3.5-0.33 7.77 1.38 11.06 8.16 14.99 16.15 30.11 23.27 45.64 3.9 8.19 4.91 18.71-0.47 26.5-12.8 18.82-27.19 36.52-39.54 55.66-6.5 11-9.8 25.96-23 31.04-12.76 4.41-26.29-2.46-33.99-12.64-7.27-10.54-16.24-19.89-22.38-31.19-3.26-6.37-10.19-9.47-16.21-12.58-4.59 1.36-9.55 2.47-13.42 5.46-0.55 3.31 0.58 6.56 2.32 9.28 11.65 18.33 23.81 36.3 35.38 54.67 7.4 8.15 17.9 12.74 25.46 20.82 3.54 2.32 6.84 8.84 11.82 6.14 15.4-7.44 29.25-17.94 41.53-29.76 9.53-8.7 12.38-22.09 21.79-30.78 11.43-19.12 29.06-34.4 36.65-55.72 7.5-10.18 13.72-21.23 20.93-31.6 4.71-6.94 12.55-12.98 12.69-22.05-10.79 3.02-20.98 8.28-30.15 14.72-1.68 1.35-4.37 1.73-5.64-0.37-8.56-11.77-16.63-23.98-23.15-36.99-4.41-7.77-11.27-18.06-20.94-18.01zm93.88 78.97c-0.68-0.03-1.4 0.12-2.09 0.52-10.15 5.8-16.54 16.23-24.43 24.58-19.41 26.18-38.03 52.91-56.45 79.81-15.57 24.32-33.38 47.64-43.78 74.83-0.88 2.24-5.85 8.48-1 7.91 17.12 0.97 25.23-16.72 35.29-27.2 4.93-2.82 4.2-9.42 8.59-12.72 3.49-2.47 2.7-7.64 5.83-10.25 7.22-4.68 7.37-14.58 13.98-19.93 9.35-7.31 13.28-19.06 21.78-27.16 6.11-15.64 19.41-28 27.05-41.64 5.53-14.19 14.86-26.65 18.39-41.62 2.19-3.31-0.2-6.99-3.16-7.13zm31.35 27.45c-1.73-0.07-3.46 0.16-4.5 0.4-20.06 18.16-29.04 46-50.22 62.96-4.54 0.5-2.94 6.48-7.15 6.49 0.73 8.3-4.07 12.36-7.55 18.68-16.77 24.18-36.84 46.07-53.4 70.42-4.28 8.88-12.19 18.39-9.36 28.72 4.4 3.2 16.72 7.17 15.44-2.07 5.55 4.72 0.97-6.77 4.57-9.47 9.67-7.83 11.75-21.09 21.26-29.03 6.64-9.91 15.82-17.6 22.67-27.31 6.17-5.99 12.54-11.9 16.74-19.54 15.48-19.28 31.48-38.38 43.8-59.92 5.2-11.76 13.92-22.68 13.31-36.24 0.18-3.05-2.72-3.98-5.61-4.09zm121.1 3.11c-7.87-0.32-15.64 4.39-22.83 7.07-18.47 5.95-39.35 9.05-54.22 22.36 1.38 2.5 3.91 4.05 6.76 4.32 12.27 1.6 24.7 0.51 36.99-0.41 2 1.52 4.12 4.11 1.61 6.2-13.92 16.3-22.5 36.23-34.89 53.62-8.2 10.22-15.25 21.3-23.66 31.37-17.95 28.14-40.52 52.79-61.39 78.6-7.64 12.24-22.41 16.68-32.7 26.11-14.5 9.54-30.53 16.51-46.46 23.33-5.05 2.07-3.25 12.22-10.09 10.66-4.71-5.93-7.7-12.9-10.81-19.73-5.39-7.73-7.73-17.07-12.6-25.07-0.49 0.04-1.48 0.13-1.98 0.16-5.67 25.7-8 52.03-11.99 77.99 13.8 13.11 22.53 29.85 30.46 46.84 3.58 4.02 6.48 8.62 8.58 13.6-0.59 3.91-3.72 7.15-3.56 11.25 15.69 3.96 31.65-0.99 47.04-4.2 22.34-6.62 44.57-14.58 64.47-26.86 21.75-10.42 44.55-20.79 60.97-39.03 15.55-13.99 31.26-28.06 43.68-45.04 20.88-26.07 45.79-48.53 66.89-74.4 3.64-3.78 3.99-9.25 4.56-14.14 5.31-39.36 17.93-78.11 14.81-118.22-1.78-7.83-10.76-10.57-16.37-15.32-12.23-10.44-25.01-20.23-37.81-29.94-1.82-0.7-3.65-1.04-5.46-1.12zm9.01 45.09c7.4-0.06 17.1 0.44 21.26 7.69 12.86 12.1 10.64 31.85 6.11 47.3-3.82 12.95-1.03 28.75-10.4 39.67-14.63-17.97-29.74-35.62-43.05-54.59-3.07-3.2-10.69-5.46-8.72-11.22 5.72-14.25 19.07-27.07 34.8-28.85zm-102.18 3.37c-19.51 9.52-24.26 35.18-44.53 43.57-5.28 7.77-11.62 14.99-18.71 21.31-4.4 3.65-4.76 9.97-8.23 14.22-3.2 2.28-6.1 4.87-7.78 8.51-10.05 5.37-12.97 17.72-22.61 23.72-5.95 8.19-12.53 16.14-16.6 25.5-6.69 7.16-14.04 16.55-12.09 27.35 10.08 1.6 19.38-5.09 26.06-11.82 5.62-12.79 16.48-21.73 24.94-32.48 2.24-2.98 5.95-4.14 8.77-6.42 2.02-8.02 8.98-12.95 11.72-20.48 9.74-10.91 16.92-23.77 27.01-34.4 5.94-7.82 15.28-12.56 20.02-21.32 3.33-6.25 10.21-9.23 13.33-15.69 8.3-3.21 4.74-14.63 5.34-21.15-1.66-0.11-4.97-0.32-6.64-0.42zm54.06 51.51c7.95 0.04 13.33 7.35 19.94 11 27.38 22 27.65 63.81 9.85 91.97-10.2 19.88-29.5 32.25-43.22 49.28-15.02 14.97-29.88 30.42-46.66 43.63-2.79 1.59-6.48 1.11-9.21-0.38-14.92-11.07-25.18-26.7-36.88-40.83-3.43-4.86-6.72-11.46-3.8-17.35 13.9-24.1 30.3-46.92 49.83-66.85 14-22.37 30.58-43.2 49.19-61.92 3-2.88 5.25-6.97 9.33-8.45 0.55-0.07 1.09-0.1 1.63-0.1zm101.52 97.33c-0.51-0.03-1.12 0.04-1.83 0.22-4.85 3.79-11.52 3.41-17.28 5.05-10.59 19.66-29.79 32.39-42.78 50.21-16.51 12.12-26.39 31.18-43.03 43.25-6.03 5.67-6.92 14.9-13.47 20.25-7.98 7.22-14.2 16.06-21.04 24.32-1.71 4.8-1.97 14.87 5.22 13.86 13.81-5.17 21.83-18.61 34.28-25.96 5.6-7.16 11.29-14.56 18.59-20.21 13.3-19.11 30.33-35.4 45.69-53.02 11.49-11.9 20.04-27.01 34.31-35.99 5.58-2.95 1.21-10.9 2.74-15.74 1.31-4.02 0.84-6.1-1.4-6.24zm19.13 41.01c-1.89 0.06-3.77 0.38-5.53 0.86-4.76-0.35-3.94 5.43-8.39 5.8-11.69 6.9-19.01 19.33-29.67 27.72-12.73 13.18-22.08 29.51-36.19 41.35-4.78 8.33-13.58 13.43-17.83 22.12-6.72 9.56-15.02 18.53-18.05 30.11-6.41-0.58-2.1 10.61-2.83 13.69 6.21 1.61 17.4 4.01 19.12-4.39 6.09-14.58 19.29-24.41 27.07-37.76 4.05-3.05 7.71-6.57 10.43-10.88 4.93-7.67 14.64-10.34 19.19-18.35 5.86-10.15 16.11-16.45 22.87-25.83 2.34-3.41 7.85-2.81 9.55-6.78 2.85-5.44 2.78-13 9.1-15.83 4.65-2.22 7.39-6.61 7.88-11.68 5.54 5.3 2.46-4.77 2.16-7.82-2.59-1.82-5.74-2.44-8.88-2.33zm-261.96 16.07c4.88-0.08 9.72 1.16 12.8 5.21 4.57 8.44 0.41 18.83 3.09 27.7 9.5 4.4 15.24 13.19 23.41 19.34 4.47 5.52 11.83 10.45 10.99 18.36-11.8 10.57-28.26 12.09-42.78 16.7-13.02 5.51-27.46 8.24-41.54 7.55-14.34-9.57-21.23-26.17-29.17-40.82-1.41-8.89-2.92-20.73 6.54-25.9 16.66-9.04 31.21-23.43 50.16-27.38 2.07-0.43 4.29-0.73 6.5-0.76zm281.05 19.3c-0.48 0.01-0.98 0.06-1.51 0.16-12.16 5.65-19.72 17.02-28.36 26.69-10.49 15.5-24.07 28.59-34.77 43.93-14.71 13.76-24.03 32.43-40.03 44.98-3.42 2.38-3.04 7.15-4.35 10.6-1.46 7.64-7.51 14.28-5.41 22.5 2.42 3.66 7.99 2.94 11.92 3.12 1.32-2.54 2.25-5.3 3.95-7.63 22.1-26.96 43.13-54.89 67.69-79.74 7.19-6.77 11.6-15.81 18.08-23.19 6.5-8.93 16.79-14.88 21.87-24.79 0.11-5.65-1.87-16.65-9.08-16.63zm5.69 44.85c-4.44 7.33 0.45 18.45-3.05 26.78-24.86 16.88-34.26 47.67-51.4 71.32-9.84-0.28-19.66 0.17-29.49-0.63-0.75 7.1-1.49 14.28-1.22 21.44 4.1 3.86 10.16 4.98 13.89 9.38 7.15 8.57 12.61 18.79 22.22 25.01 14.5 4.08 20.35-12.56 32.5-15.99 6.27-1.06 5.82-9.44 11.64-11.02 14.42-5.68 25.62-17.04 39.29-24.19 3.66-2.68 9.01-4.04 10.83-8.57 2.68-15.03-0.4-30.17-4.77-44.53-5.76-20.83-18.98-42.91-40.44-49zm7.8 45.24c5.38-0.15 7.35 6.53 11.96 9.58 0.49 2.98 0.45 6.18 4.08 6.32-0.09 4.72 0.11 9.55-0.46 14.29-4.32 1.3-6.27-5.31-9.88-7.11-7.1 5.7-14.17 13.13-24.52 9.99-2.23-4.87 1.46-8.42 3.77-12.02 2.91-7.1 7.45-12.64 10.7-19.73 1.68-0.89 3.11-1.29 4.35-1.32z" transform="scale(.8)" fill="#1a7172"/>
<path d="m454.39 293.45c-12.58 1.42-23.261 11.68-27.841 23.08-1.57 4.61 4.5197 6.4103 6.9797 8.9703 10.65 15.18 22.731 29.3 34.441 43.68 7.49-8.74 5.2603-21.379 8.3203-31.739 3.62-12.36 5.3994-28.161-4.8906-37.841-3.33-5.8-11.089-6.2-17.009-6.15zm-38.498 43.905c-0.4245-0.002-0.8578 0.0225-1.3016 0.075-3.26 1.19-5.0609 4.4609-7.4609 6.7609-14.89 14.98-28.15 31.639-39.35 49.539-15.63 15.94-28.75 34.2-39.87 53.48-2.33 4.71 0.3006 9.9912 3.0406 13.881 9.36 11.3 17.569 23.809 29.509 32.659 2.18 1.19 5.1309 1.5794 7.3609 0.30938 13.43-10.57 25.32-22.929 37.33-34.909 10.98-13.62 26.42-23.52 34.58-39.42 14.24-22.53 14.02-55.98-7.8797-73.58-5.2875-2.9156-9.5904-8.7674-15.958-8.7953zm-183.06 90.939c-0.1716 0.007-0.3471 0.0225-0.5265 0.0469-0.92 9.41-5.95 18.02-5.4 27.63 0.36 13.12-4.2494 25.649-4.6094 38.659 1.91 3.83 6.3606 5.8009 8.5906 9.5609 4.29 5.47 9.07 10.83 11.4 17.5 1.07 4.1 3.22 7.8588 6.65 10.419-6.34-13.59-13.321-26.979-24.361-37.469 3.19-20.77 5.0506-41.831 9.5906-62.391 0.4-0.03 1.1897-0.0997 1.5797-0.12969 3.9 6.4 5.7697 13.869 10.08 20.059-1.06-4.1-2.55-8.0591-4.1-11.989-1.9085-4.2044-3.5731-12.116-8.8938-11.897zm70.016 32.584c-1.7718 0.0265-3.5485 0.26874-5.2016 0.61249-15.16 3.16-26.8 14.67-40.13 21.9-7.57 4.14-6.3597 13.609-5.2297 20.719 6.35 11.72 11.86 25.001 23.33 32.661 11.27 0.55 22.819-1.6306 33.239-6.0406 11.61-3.69 24.78-4.9094 34.22-13.359 0.67-6.33-5.2191-10.271-8.7891-14.691-6.54-4.92-11.131-11.95-18.731-15.47-2.14-7.1 1.1812-15.409-2.4688-22.159-2.4681-3.245-6.3411-4.2302-10.239-4.1719z" fill="#bdbfe1"/>
</g>
</svg>
